<?xml version="1.0" encoding="utf-8"?>
<!-- Generator: Adobe Illustrator 15.0.0, SVG Export Plug-In . SVG Version: 6.00 Build 0)  -->
<!DOCTYPE svg PUBLIC "-//W3C//DTD SVG 1.1//EN" "http://www.w3.org/Graphics/SVG/1.1/DTD/svg11.dtd">
<svg version="1.1" id="图层_1" xmlns="http://www.w3.org/2000/svg" xmlns:xlink="http://www.w3.org/1999/xlink" x="0px" y="0px"
	 width="20px" height="21.135px" viewBox="0 0 20 21.135" enable-background="new 0 0 20 21.135" xml:space="preserve">
<g>
	<g>
		<path fill-rule="evenodd" clip-rule="evenodd" fill="#262536" d="M9.5,11.454c0-0.55,0.386-1.231,0.857-1.515l8.255-4.953
			c0.472-0.283,0.455-0.716-0.037-0.962l-7.681-3.84c-0.492-0.246-1.297-0.246-1.789,0L0.895,4.29C0.402,4.536,0,5.188,0,5.737v10
			c0,0.55,0.402,1.201,0.895,1.447l7.711,3.855C9.098,21.286,9.5,21.037,9.5,20.487V11.454z"/>
	</g>
	<g>
		<path fill-rule="evenodd" clip-rule="evenodd" fill="#262536" d="M11.357,10.506c-0.472,0.283-0.857,0.965-0.857,1.515v8.467
			c0,0.55,0.402,0.799,0.895,0.553l7.711-3.855C19.598,16.938,20,16.287,20,15.737V6.32c0-0.55-0.386-0.769-0.857-0.485
			L11.357,10.506z"/>
	</g>
</g>
</svg>
