<?xml version="1.0" encoding="utf-8"?>
<!-- Generator: Adobe Illustrator 15.0.0, SVG Export Plug-In . SVG Version: 6.00 Build 0)  -->
<!DOCTYPE svg PUBLIC "-//W3C//DTD SVG 1.1//EN" "http://www.w3.org/Graphics/SVG/1.1/DTD/svg11.dtd">
<svg version="1.1" id="图层_1" xmlns="http://www.w3.org/2000/svg" xmlns:xlink="http://www.w3.org/1999/xlink" x="0px" y="0px"
	 width="19px" height="18.91px" viewBox="0 0 19 18.91" enable-background="new 0 0 19 18.91" xml:space="preserve">
<g>
	<path d="M0.357,6.212c-0.472-0.283-0.472-0.746,0-1.029l8.285-4.971c0.471-0.283,1.242-0.283,1.715,0l8.285,4.971
		c0.472,0.283,0.472,0.746,0,1.029l-8.285,4.971c-0.472,0.283-1.243,0.283-1.715,0L0.357,6.212z"/>
</g>
<path fill="#040000" d="M9.5,14.91c-0.402,0-0.804-0.087-1.117-0.261l-8.125-4.514c-0.242-0.134-0.329-0.438-0.194-0.68
	c0.134-0.241,0.438-0.33,0.68-0.194l8.126,4.514c0.33,0.184,0.932,0.184,1.262,0l8.127-4.514c0.241-0.135,0.545-0.047,0.68,0.194
	c0.134,0.241,0.047,0.546-0.195,0.68l-8.125,4.514C10.304,14.823,9.902,14.91,9.5,14.91z"/>
<path fill="#040000" d="M9.5,18.91c-0.402,0-0.804-0.087-1.117-0.261l-8.125-4.514c-0.242-0.134-0.329-0.438-0.194-0.68
	c0.134-0.242,0.438-0.329,0.68-0.194l8.126,4.514c0.33,0.184,0.932,0.184,1.262,0l8.127-4.514c0.241-0.135,0.545-0.047,0.68,0.194
	c0.134,0.241,0.047,0.546-0.195,0.68l-8.125,4.514C10.304,18.823,9.902,18.91,9.5,18.91z"/>
</svg>
