<?xml version="1.0" encoding="utf-8"?>
<!-- Generator: Adobe Illustrator 19.0.0, SVG Export Plug-In . SVG Version: 6.00 Build 0)  -->
<svg version="1.1" id="图层_1" xmlns="http://www.w3.org/2000/svg" xmlns:xlink="http://www.w3.org/1999/xlink" x="0px" y="0px"
	 viewBox="0 0 18 17.5" style="enable-background:new 0 0 18 17.5;" xml:space="preserve">
<style type="text/css">
	.st0{fill:#D7D9E6;}
</style>
<g id="XMLID_14_">
	<path id="XMLID_18_" class="st0" d="M16,2.8h-3.5c0,0.8-0.7,1.5-1.5,1.5H7c-0.8,0-1.5-0.7-1.5-1.5H4H2c-1.1,0-2,0.9-2,2v10.7
		c0,1.1,0.9,2,2,2h14c1.1,0,2-0.9,2-2V4.8C18,3.7,17.1,2.8,16,2.8z M14.4,7.3L8,14.7l-3.4-3.4c-0.2-0.2-0.2-0.5,0-0.7s0.5-0.2,0.7,0
		L8,13.3l5.6-6.6c0.2-0.2,0.5-0.2,0.7-0.1C14.5,6.8,14.6,7.1,14.4,7.3z"/>
	<path id="XMLID_22_" class="st0" d="M7,3.8h4c0.5,0,1-0.4,1-1V2.3c0-0.3-0.2-0.6-0.4-0.8l-2-1.3c-0.3-0.2-0.8-0.2-1.1,0l-2,1.3
		C6.2,1.7,6,2,6,2.3v0.5C6,3.3,6.4,3.8,7,3.8z"/>
</g>
</svg>
