<?xml version="1.0" encoding="utf-8"?>
<!-- Generator: Adobe Illustrator 19.0.0, SVG Export Plug-In . SVG Version: 6.00 Build 0)  -->
<svg version="1.1" id="图层_1" xmlns="http://www.w3.org/2000/svg" xmlns:xlink="http://www.w3.org/1999/xlink" x="0px" y="0px"
	 viewBox="0 0 19 17" style="enable-background:new 0 0 19 17;" xml:space="preserve">
<style type="text/css">
	.st0{fill:#D7D9E6;}
</style>
<g id="XMLID_14_">
	<path id="XMLID_21_" class="st0" d="M3,5V0.5C3,0.2,2.8,0,2.5,0S2,0.2,2,0.5V5C0.9,5.3,0,6.3,0,7.5c0,1.2,0.9,2.2,2,2.4v6.5
		C2,16.8,2.2,17,2.5,17S3,16.8,3,16.5V9.9c1.1-0.2,2-1.2,2-2.4S4.1,5.3,3,5z"/>
	<path id="XMLID_25_" class="st0" d="M10,8V0.5C10,0.2,9.8,0,9.5,0S9,0.2,9,0.5V8c-1.1,0.2-2,1.2-2,2.4c0,1.2,0.9,2.2,2,2.4v3.5
		C9,16.8,9.2,17,9.5,17s0.5-0.2,0.5-0.5v-3.5c1.1-0.2,2-1.2,2-2.4C12,9.3,11.1,8.3,10,8z"/>
	<path id="XMLID_26_" class="st0" d="M19,6c0-1.2-0.9-2.2-2-2.5c0,0,0,0,0,0v-3C17,0.2,16.8,0,16.5,0S16,0.2,16,0.5v3c0,0,0,0,0,0
		c-1.1,0.2-2,1.2-2,2.5c0,1.2,0.9,2.2,2,2.5c0,0,0,0,0,0v8c0,0.3,0.2,0.5,0.5,0.5s0.5-0.2,0.5-0.5v-8c0,0,0,0,0,0
		C18.1,8.2,19,7.2,19,6z"/>
</g>
</svg>
