<?xml version="1.0" encoding="utf-8"?>
<!-- Generator: Adobe Illustrator 15.0.0, SVG Export Plug-In . SVG Version: 6.00 Build 0)  -->
<!DOCTYPE svg PUBLIC "-//W3C//DTD SVG 1.1//EN" "http://www.w3.org/Graphics/SVG/1.1/DTD/svg11.dtd">
<svg version="1.1" id="图层_1" xmlns="http://www.w3.org/2000/svg" xmlns:xlink="http://www.w3.org/1999/xlink" x="0px" y="0px"
	 width="20px" height="14px" viewBox="0 0 20 14" enable-background="new 0 0 20 14" xml:space="preserve">
<path fill-rule="evenodd" clip-rule="evenodd" fill="#262536" d="M0,1c0,1,0,11,0,12s1,1,1,1h18c0,0,1,0,1-1s0-11,0-12s-1-1-1-1H1
	C1,0,0,0,0,1z M17.197,3.459L10,6.544L2.803,3.459C2.549,3.351,2.432,3.057,2.541,2.803C2.649,2.549,2.945,2.43,3.197,2.541
	L10,5.456l6.803-2.916c0.252-0.11,0.548,0.008,0.656,0.263C17.568,3.057,17.451,3.351,17.197,3.459z"/>
</svg>
