<?xml version="1.0" encoding="utf-8"?>
<!-- Generator: Adobe Illustrator 15.0.0, SVG Export Plug-In . SVG Version: 6.00 Build 0)  -->
<!DOCTYPE svg PUBLIC "-//W3C//DTD SVG 1.1//EN" "http://www.w3.org/Graphics/SVG/1.1/DTD/svg11.dtd">
<svg version="1.1" id="图层_1" xmlns="http://www.w3.org/2000/svg" xmlns:xlink="http://www.w3.org/1999/xlink" x="0px" y="0px"
	 width="20px" height="20px" viewBox="0 0 20 20" enable-background="new 0 0 20 20" xml:space="preserve">
<path fill-rule="evenodd" clip-rule="evenodd" fill="#262435" d="M10,0C4.429,0,0,4.429,0,10s4.429,10,10,10s10-4.429,10-10
	S15.571,0,10,0z M14,12.5c0.276,0,0.5,0.224,0.5,0.5s-0.224,0.5-0.5,0.5h-3.5V16c0,0.276-0.224,0.5-0.5,0.5S9.5,16.276,9.5,16v-2.5
	H6c-0.276,0-0.5-0.224-0.5-0.5s0.224-0.5,0.5-0.5h3.5v-3H6C5.724,9.5,5.5,9.276,5.5,9S5.724,8.5,6,8.5h2.066L6.584,6.277
	c-0.153-0.23-0.091-0.54,0.139-0.693s0.54-0.091,0.693,0.139L9.268,8.5h1.465l1.852-2.777c0.152-0.23,0.463-0.292,0.693-0.139
	c0.23,0.153,0.292,0.463,0.139,0.693L11.934,8.5H14c0.276,0,0.5,0.224,0.5,0.5S14.276,9.5,14,9.5h-3.5v3H14z"/>
</svg>
