<?xml version="1.0" encoding="utf-8"?>
<!-- Generator: Adobe Illustrator 19.0.0, SVG Export Plug-In . SVG Version: 6.00 Build 0)  -->
<svg version="1.1" id="图层_1" xmlns="http://www.w3.org/2000/svg" xmlns:xlink="http://www.w3.org/1999/xlink" x="0px" y="0px"
	 viewBox="0 0 19 19" style="enable-background:new 0 0 19 19;" xml:space="preserve">
<style type="text/css">
	.st0{fill:#D7D9E6;}
</style>
<path id="XMLID_15_" class="st0" d="M18.9,9.4c-0.3-1-1-1.7-1.9-2.2C16.8,3.2,13.5,0,9.5,0C5.5,0,2.2,3.2,2,7.2
	c-1.2,0.6-2,1.8-2,3.2v2c0,1.9,1.6,3.5,3.5,3.5c0.4,0,0.8-0.1,1.2-0.2L5,15.5l0-8.4L4.7,7C4.3,6.9,3.9,6.8,3.5,6.8
	c-0.2,0-0.3,0-0.5,0C3.3,3.6,6.1,1,9.5,1c3.4,0,6.1,2.6,6.5,5.9c-0.5-0.1-1.1,0-1.6,0.2L14,7.1l0,8.4l0.3,0.1
	c0.4,0.1,0.8,0.2,1.2,0.2c0.2,0,0.3,0,0.5,0c-0.2,1.2-1.3,2.2-2.5,2.2c-0.3,0-0.5,0.2-0.5,0.5s0.2,0.5,0.5,0.5
	c1.8,0,3.5-1.7,3.5-3.5c0,0,0,0,0,0c1.2-0.6,2-1.8,2-3.2v-2C19,10,19,9.7,18.9,9.4z"/>
</svg>
