<?xml version="1.0" encoding="utf-8"?>
<!-- Generator: Adobe Illustrator 19.0.0, SVG Export Plug-In . SVG Version: 6.00 Build 0)  -->
<svg version="1.1" id="图层_1" xmlns="http://www.w3.org/2000/svg" xmlns:xlink="http://www.w3.org/1999/xlink" x="0px" y="0px"
	 viewBox="0 0 19 17.3" style="enable-background:new 0 0 19 17.3;" xml:space="preserve">
<style type="text/css">
	.st0{fill:#D7D9E6;}
</style>
<path id="XMLID_16_" class="st0" d="M18.8,6.7l-7.7-6.1c-0.9-0.8-2.4-0.8-3.3,0L0.2,6.7C0,6.9-0.1,7.2,0.1,7.4
	c0.1,0.1,0.2,0.2,0.4,0.2c0.1,0,0.2,0,0.3-0.1L2,6.6v8.2c0,1.4,1.1,2.5,2.5,2.5l2.7,0c0.8,0,1.5-0.7,1.5-1.5v-2
	c0-0.1,0.1-0.2,0.2-0.2h1.3c0.1,0,0.2,0.1,0.2,0.2v2c0,0.8,0.7,1.5,1.5,1.5h2.7c1.4,0,2.5-1.1,2.5-2.5V6.6l1.2,0.9
	c0.2,0.2,0.5,0.1,0.7-0.1C19.1,7.2,19,6.9,18.8,6.7z"/>
</svg>
